<?xml version="1.0" encoding="UTF-8" standalone="no"?>
<svg width="80px" height="28px" viewBox="0 0 80 28" version="1.1" xmlns="http://www.w3.org/2000/svg" xmlns:xlink="http://www.w3.org/1999/xlink" xmlns:sketch="http://www.bohemiancoding.com/sketch/ns">
    <!-- Generator: Sketch 3.2.2 (9983) - http://www.bohemiancoding.com/sketch -->
    <title>logo_wt</title>
    <desc>Created with Sketch.</desc>
    <defs></defs>
    <g id="资源" stroke="none" stroke-width="1" fill="none" fill-rule="evenodd" sketch:type="MSPage">
        <g id="Portrait" sketch:type="MSArtboardGroup" transform="translate(-314.000000, -563.000000)" fill="#FFFFFF">
            <g id="Group-3" sketch:type="MSLayerGroup" transform="translate(314.000000, 565.000000)">
                <path d="M10.1186324,18.5643588 C17.5828582,18.5643588 23.6418645,12.4479464 23.6418645,4.90130722 L23.6418645,0.0875752577 L18.869456,0.0875752577 C11.4041285,0.0875752577 5.34622385,6.20732784 5.34622385,13.7481526 L5.34622385,18.5643588 L10.1186324,18.5643588 Z" id="Fill-1" sketch:type="MSShapeGroup"></path>
                <path d="M10.1186324,19.1797979 L5.64847027,19.1797979 C8.75772782,22.1014887 12.9200124,23.8896124 17.4975339,23.8896124 L23.6418645,23.8896124 L23.6418645,17.6904371 C23.6418645,15.5598804 23.2675148,13.5198804 22.5811253,11.6299423 C20.1970633,16.1193031 15.5065514,19.1797979 10.1186324,19.1797979" id="Fill-3" sketch:type="MSShapeGroup"></path>
                <path d="M4.73723831,13.7481278 C4.73723831,8.30433402 7.76668029,3.56421031 12.2135833,1.15728247 C10.3466087,0.46462268 8.32918426,0.0875505155 6.22643545,0.0875505155 L0.0844306836,0.0875505155 L0.0844306836,6.28895258 C0.0844306836,10.9137773 1.85151335,15.1177361 4.73723831,18.2577773 L4.73723831,13.7481278 Z" id="Fill-5" sketch:type="MSShapeGroup"></path>
                <path d="M76.9088486,11.6303258 L76.9088486,10.1482639 L74.4068995,10.1482639 C74.9287612,8.51428454 75.3589329,6.8545732 75.695456,5.16900619 L74.3061507,4.70904742 L73.775475,7.49329485 C73.556227,8.51428454 73.3359997,9.40042887 73.1178534,10.1482639 L69.3017628,10.1482639 L69.3017628,11.6303258 L72.2081762,11.6303258 L72.2081762,15.5131299 L69.8325609,15.5131299 L69.8325609,17.019934 L72.2081762,17.019934 L72.2081762,23.4036866 L73.7497676,23.4036866 L73.7497676,17.019934 L76.6561809,17.019934 L76.6561809,15.5131299 L73.7497676,15.5131299 L73.7497676,11.6303258 L76.9088486,11.6303258 Z M55.5030935,9.86818144 L56.7926293,9.4848 C56.6061889,8.02178969 56.3114099,6.48009897 55.906456,4.86319175 L54.6935529,5.24545979 C55.0140394,6.70945979 55.2838455,8.25127423 55.5030935,9.86818144 L55.5030935,9.86818144 Z M68.62027,8.64145979 C68.5690998,7.31329485 68.5435148,5.29605773 68.5435148,2.58950103 L69.3279599,2.4364701 C69.4447453,2.41853196 69.5454941,2.39378969 69.6305736,2.36001649 L69.1498439,0.928552577 C66.9440203,1.45704742 64.4331348,1.88323299 61.6185339,2.20710928 L61.6185339,6.49593402 C61.6185339,7.45061443 61.6106992,8.27601649 61.5940506,8.9753567 C61.5940506,9.82661443 61.5772795,10.6001814 61.5434925,11.298532 C61.4593924,12.8649649 61.3164099,14.2525113 61.1139329,15.4601814 C60.6420172,18.1860371 59.7073669,20.5507794 58.308758,22.5603464 L59.6228995,23.5318515 C61.0715768,21.2850062 62.0324242,18.6526763 62.5036054,15.6401814 C62.7222413,14.3122639 62.8653463,12.7636454 62.9337771,10.9916041 C62.9838455,10.2257072 63.0083288,9.36566598 63.0083288,8.41197526 C63.0260792,7.62937732 63.0344035,6.69275876 63.0344035,5.60422268 L63.0344035,3.45758351 L64.2473065,3.30467629 L64.2724019,21.4627794 L63.6264099,21.5774598 C63.6264099,21.5774598 63.7243431,22.2544082 63.8037914,22.7873567 C64.3190426,22.6963052 66.5505736,22.002532 67.0836976,21.7304907 C67.1703685,22.1768412 67.2610792,22.5557691 67.3306118,23.1743258 L68.5435148,22.7660784 C68.5435148,22.7660784 67.4351555,18.6526763 67.1653494,17.7317691 L66.289704,17.9666969 C66.575669,19.1250062 66.7709234,19.9358103 66.9049695,20.6610062 C66.4565577,20.8702021 65.9213526,21.0489649 65.6626865,21.0973361 L65.6881491,3.12578969 C66.2451444,3.04030515 66.7235482,2.95605773 67.1281348,2.8716866 C67.1948518,7.58669691 67.3389361,11.0433155 67.5576944,13.2394392 C67.9292286,17.3426969 68.728731,20.7318928 69.9588948,23.4036866 L71.2223558,22.5603464 C70.0756801,20.3303258 69.3179218,17.1290474 68.947979,12.9582433 C68.7799011,11.3918103 68.6697262,9.95366598 68.62027,8.64145979 L68.62027,8.64145979 Z M72.4101634,3.10005773 L69.2516944,3.10005773 L69.2516944,4.5550268 L76.6039091,4.5550268 L76.6039091,3.10005773 L73.8762238,3.10005773 L73.7247946,2.4364701 C73.6731348,2.16442887 73.622944,1.93494433 73.572386,1.74727423 C73.4383399,1.21877938 73.2858089,0.717129897 73.1178534,0.239356701 L71.651793,0.647480412 L72.0824544,1.9259134 L72.4101634,3.10005773 Z M61.0632525,3.10005773 L58.5619154,3.10005773 C58.4432938,2.57267629 58.3247946,2.09576907 58.2075196,1.67082062 C58.0549886,1.10966598 57.8953574,0.581171134 57.7267898,0.0875628866 L56.3114099,0.546284536 L56.7420712,1.84945979 C56.8756277,2.3251299 56.9861698,2.74240825 57.0697803,3.10005773 L53.9357946,3.10005773 L53.9357946,4.5550268 L61.0632525,4.5550268 L61.0632525,3.10005773 Z M60.684863,15.2308206 L58.1312541,15.2308206 L58.2075196,13.9793567 C58.22527,13.6735423 58.2497533,12.8403464 58.2825609,11.4774186 L60.962014,11.4774186 L60.962014,9.99523299 L58.8890124,9.99523299 C59.3612954,8.41197526 59.7569456,6.79506804 60.0773097,5.14315052 L58.6615625,4.76088247 C58.3247946,6.75226392 57.9710108,8.49745979 57.601068,9.99523299 L53.6586436,9.99523299 L53.6586436,11.4774186 L56.7665545,11.4774186 C56.7665545,12.6356041 56.7581078,13.4351505 56.7420712,13.8781608 C56.7420712,14.081666 56.7326452,14.2953155 56.7163638,14.5156454 L56.664704,15.2308206 L53.8862159,15.2308206 L53.8862159,16.7388619 L56.5394719,16.7388619 C56.3213256,18.0488412 56.0510299,19.0474392 55.7305434,19.7253773 C55.3428502,20.5789856 54.702979,21.3942433 53.8111746,22.1779546 L55.0240776,23.4036866 C55.9841905,22.4331711 56.6909011,21.3942433 57.1459234,20.2876454 C57.3496245,19.7951505 57.5164782,19.2419134 57.6511364,18.627934 C57.7691459,18.117501 57.8876452,17.4865732 58.0055323,16.7388619 L60.684863,16.7388619 L60.684863,15.2308206 Z M69.9588948,5.16900619 C70.1273399,5.83358351 70.2960299,6.61630515 70.464475,7.51927423 L70.6665847,8.74488247 C70.6832334,8.89778969 70.7165307,9.10129485 70.7678232,9.35762474 C70.8183812,9.64785155 70.8511889,9.8513567 70.8678375,9.97061443 L72.1587199,9.58710928 C71.9889281,8.66719175 71.8370092,7.88459381 71.7019838,7.23807835 C71.5343955,6.36875876 71.3480776,5.56154227 71.1467024,4.81148041 L69.9588948,5.16900619 Z M44.8136817,0.239356701 L43.197049,0.239356701 L43.197049,3.27981031 L36.7515736,3.27981031 L36.7515736,0.239356701 L35.1348184,0.239356701 L35.1348184,3.27981031 L28.9693097,3.27981031 L28.9693097,4.93964536 L35.1348184,4.93964536 L35.1348184,7.49329485 L35.74127,7.49329485 C34.8656245,8.9753567 33.8040283,10.4394804 32.5572159,11.8866557 C31.4444496,13.1798103 30.1315323,14.5257897 28.6147914,15.9202639 L29.7515514,17.2494186 C30.4252095,16.6533773 31.1251873,15.9719753 31.8484242,15.2060784 L34.0098105,12.9763052 L34.0098105,23.6083052 L35.653987,23.6083052 L35.653987,11.1130887 C36.1702175,10.2313979 36.5797008,9.61185155 37.2572763,8.18261443 L36.0950537,7.49329485 L36.7515736,7.49329485 L36.7515736,4.93964536 L43.197049,4.93964536 L43.197049,7.55626392 L44.8136817,7.55626392 L44.8136817,4.93964536 L50.9542175,4.93964536 L50.9542175,3.27981031 L44.8136817,3.27981031 L44.8136817,0.239356701 Z M49.3997723,20.4676454 C49.282987,21.1771299 48.9653161,21.5741196 48.0044687,21.5741196 L44.0955863,21.5741196 C43.5624623,21.5741196 42.9165927,21.090532 42.9165927,19.9076041 L42.9165927,15.5637278 C46.037235,14.2513979 48.3643733,12.4860371 50.2087008,10.9465732 L49.3124893,9.58710928 C48.2242064,10.6272742 45.1715052,12.8379959 42.9165927,13.8275629 L42.9165927,7.54389278 L41.2480553,7.54389278 L41.2480553,14.3211711 L38.4946626,15.2422021 L38.9402588,16.7466557 L41.2480553,15.9584907 L41.2480553,20.3932948 C41.2480553,22.1441814 42.519351,23.0718928 44.0431921,23.0718928 L48.1708328,23.0718928 C49.3030633,23.0718928 50.5541603,22.6097072 50.790669,21.0264495 C50.8931316,20.3461608 50.8892143,19.4431918 50.8892143,18.7381608 L49.511049,18.0184082 C49.4939107,19.2790268 49.5261062,19.6815835 49.3997723,20.4676454 L49.3997723,20.4676454 Z" id="Fill-7" sketch:type="MSShapeGroup"></path>
            </g>
        </g>
    </g>
</svg>